<mxfile host="app.diagrams.net" modified="2021-05-20T08:49:28.206Z" agent="5.0 (Macintosh; Intel Mac OS X 10_15_7) AppleWebKit/537.36 (KHTML, like Gecko) Chrome/90.0.4430.93 Safari/537.36" etag="yvs4ensIMZ--CIKnES2X" version="14.6.13" type="github">
  <diagram id="jDMzYcg2JHlZjZy24_a0" name="Page-1">
    <mxGraphModel dx="1128" dy="914" grid="1" gridSize="10" guides="1" tooltips="1" connect="1" arrows="1" fold="1" page="1" pageScale="1" pageWidth="827" pageHeight="1169" math="0" shadow="0">
      <root>
        <mxCell id="0" />
        <mxCell id="1" parent="0" />
        <mxCell id="2KgRJR5itnegWjvfptJ9-3" value="" style="edgeStyle=orthogonalEdgeStyle;rounded=0;orthogonalLoop=1;jettySize=auto;html=1;" parent="1" source="2KgRJR5itnegWjvfptJ9-1" target="2KgRJR5itnegWjvfptJ9-2" edge="1">
          <mxGeometry relative="1" as="geometry" />
        </mxCell>
        <mxCell id="2KgRJR5itnegWjvfptJ9-1" value="render&lt;br&gt;" style="rounded=0;whiteSpace=wrap;html=1;" parent="1" vertex="1">
          <mxGeometry x="100" y="20" width="120" height="60" as="geometry" />
        </mxCell>
        <mxCell id="2KgRJR5itnegWjvfptJ9-9" value="" style="edgeStyle=orthogonalEdgeStyle;rounded=0;orthogonalLoop=1;jettySize=auto;html=1;" parent="1" source="2KgRJR5itnegWjvfptJ9-2" target="2KgRJR5itnegWjvfptJ9-8" edge="1">
          <mxGeometry relative="1" as="geometry" />
        </mxCell>
        <mxCell id="2KgRJR5itnegWjvfptJ9-2" value="legacyRenderSubtreeIntoContainer" style="whiteSpace=wrap;html=1;rounded=0;" parent="1" vertex="1">
          <mxGeometry x="55" y="170" width="210" height="60" as="geometry" />
        </mxCell>
        <mxCell id="2KgRJR5itnegWjvfptJ9-11" value="" style="edgeStyle=orthogonalEdgeStyle;rounded=0;orthogonalLoop=1;jettySize=auto;html=1;" parent="1" source="2KgRJR5itnegWjvfptJ9-8" target="2KgRJR5itnegWjvfptJ9-10" edge="1">
          <mxGeometry relative="1" as="geometry" />
        </mxCell>
        <mxCell id="2KgRJR5itnegWjvfptJ9-12" value="Y&lt;br&gt;" style="edgeLabel;html=1;align=center;verticalAlign=middle;resizable=0;points=[];" parent="2KgRJR5itnegWjvfptJ9-11" vertex="1" connectable="0">
          <mxGeometry x="-0.12" y="3" relative="1" as="geometry">
            <mxPoint as="offset" />
          </mxGeometry>
        </mxCell>
        <mxCell id="2KgRJR5itnegWjvfptJ9-14" value="" style="edgeStyle=orthogonalEdgeStyle;rounded=0;orthogonalLoop=1;jettySize=auto;html=1;" parent="1" source="2KgRJR5itnegWjvfptJ9-8" edge="1">
          <mxGeometry relative="1" as="geometry">
            <mxPoint x="160" y="470" as="targetPoint" />
          </mxGeometry>
        </mxCell>
        <mxCell id="2KgRJR5itnegWjvfptJ9-19" value="N&lt;br&gt;" style="edgeLabel;html=1;align=center;verticalAlign=middle;resizable=0;points=[];" parent="2KgRJR5itnegWjvfptJ9-14" vertex="1" connectable="0">
          <mxGeometry x="0.0489" y="-1" relative="1" as="geometry">
            <mxPoint as="offset" />
          </mxGeometry>
        </mxCell>
        <mxCell id="2KgRJR5itnegWjvfptJ9-8" value="isMounted&lt;br&gt;" style="rhombus;whiteSpace=wrap;html=1;rounded=0;" parent="1" vertex="1">
          <mxGeometry x="120" y="300" width="80" height="80" as="geometry" />
        </mxCell>
        <mxCell id="2KgRJR5itnegWjvfptJ9-16" value="" style="edgeStyle=orthogonalEdgeStyle;rounded=0;orthogonalLoop=1;jettySize=auto;html=1;" parent="1" source="2KgRJR5itnegWjvfptJ9-10" target="2KgRJR5itnegWjvfptJ9-15" edge="1">
          <mxGeometry relative="1" as="geometry" />
        </mxCell>
        <mxCell id="2KgRJR5itnegWjvfptJ9-10" value="create Root legacyCreateRootFromDOMContainer" style="whiteSpace=wrap;html=1;rounded=0;" parent="1" vertex="1">
          <mxGeometry x="260" y="310" width="220" height="60" as="geometry" />
        </mxCell>
        <mxCell id="ANqivhsRmzJsVqNhGhUm-2" value="" style="edgeStyle=orthogonalEdgeStyle;rounded=0;orthogonalLoop=1;jettySize=auto;html=1;" edge="1" parent="1">
          <mxGeometry relative="1" as="geometry">
            <mxPoint x="160" y="530" as="sourcePoint" />
            <mxPoint x="160" y="630" as="targetPoint" />
          </mxGeometry>
        </mxCell>
        <mxCell id="ANqivhsRmzJsVqNhGhUm-5" value="Y" style="edgeLabel;html=1;align=center;verticalAlign=middle;resizable=0;points=[];" vertex="1" connectable="0" parent="ANqivhsRmzJsVqNhGhUm-2">
          <mxGeometry x="-0.03" y="-3" relative="1" as="geometry">
            <mxPoint as="offset" />
          </mxGeometry>
        </mxCell>
        <mxCell id="2KgRJR5itnegWjvfptJ9-18" value="" style="edgeStyle=orthogonalEdgeStyle;rounded=0;orthogonalLoop=1;jettySize=auto;html=1;entryX=0.5;entryY=0;entryDx=0;entryDy=0;" parent="1" source="2KgRJR5itnegWjvfptJ9-15" target="ANqivhsRmzJsVqNhGhUm-4" edge="1">
          <mxGeometry relative="1" as="geometry">
            <mxPoint x="220" y="500" as="targetPoint" />
          </mxGeometry>
        </mxCell>
        <mxCell id="2KgRJR5itnegWjvfptJ9-15" value="unbatchedUpdates" style="whiteSpace=wrap;html=1;rounded=0;" parent="1" vertex="1">
          <mxGeometry x="310" y="450" width="120" height="60" as="geometry" />
        </mxCell>
        <mxCell id="ANqivhsRmzJsVqNhGhUm-15" value="" style="edgeStyle=orthogonalEdgeStyle;rounded=0;orthogonalLoop=1;jettySize=auto;html=1;" edge="1" parent="1" source="ANqivhsRmzJsVqNhGhUm-1" target="ANqivhsRmzJsVqNhGhUm-14">
          <mxGeometry relative="1" as="geometry" />
        </mxCell>
        <mxCell id="ANqivhsRmzJsVqNhGhUm-1" value="&lt;div style=&quot;font-weight: normal ; line-height: 21px&quot;&gt;&lt;div style=&quot;color: rgb(173 , 186 , 199) ; background-color: rgb(34 , 39 , 46) ; font-family: &amp;#34;fira code&amp;#34; , &amp;#34;menlo&amp;#34; , &amp;#34;monaco&amp;#34; , &amp;#34;courier new&amp;#34; , monospace , &amp;#34;menlo&amp;#34; , &amp;#34;monaco&amp;#34; , &amp;#34;courier new&amp;#34; , monospace ; font-size: 14px ; line-height: 21px&quot;&gt;&lt;span style=&quot;color: #f69d50&quot;&gt;getPublicRootInstance&lt;/span&gt;&lt;/div&gt;&lt;/div&gt;" style="whiteSpace=wrap;html=1;rounded=0;" vertex="1" parent="1">
          <mxGeometry x="60" y="760" width="200" height="60" as="geometry" />
        </mxCell>
        <mxCell id="ANqivhsRmzJsVqNhGhUm-8" value="" style="edgeStyle=orthogonalEdgeStyle;rounded=0;orthogonalLoop=1;jettySize=auto;html=1;" edge="1" parent="1" source="ANqivhsRmzJsVqNhGhUm-4" target="ANqivhsRmzJsVqNhGhUm-7">
          <mxGeometry relative="1" as="geometry" />
        </mxCell>
        <mxCell id="ANqivhsRmzJsVqNhGhUm-9" value="N&lt;br&gt;" style="edgeLabel;html=1;align=center;verticalAlign=middle;resizable=0;points=[];" vertex="1" connectable="0" parent="ANqivhsRmzJsVqNhGhUm-8">
          <mxGeometry x="0.0542" y="2" relative="1" as="geometry">
            <mxPoint as="offset" />
          </mxGeometry>
        </mxCell>
        <mxCell id="ANqivhsRmzJsVqNhGhUm-4" value="parentComponent === null" style="rhombus;whiteSpace=wrap;html=1;" vertex="1" parent="1">
          <mxGeometry x="105" y="470" width="110" height="100" as="geometry" />
        </mxCell>
        <mxCell id="ANqivhsRmzJsVqNhGhUm-12" value="" style="edgeStyle=orthogonalEdgeStyle;rounded=0;orthogonalLoop=1;jettySize=auto;html=1;" edge="1" parent="1" source="ANqivhsRmzJsVqNhGhUm-7" target="ANqivhsRmzJsVqNhGhUm-1">
          <mxGeometry relative="1" as="geometry" />
        </mxCell>
        <mxCell id="ANqivhsRmzJsVqNhGhUm-7" value="&lt;div style=&quot;color: rgb(173 , 186 , 199) ; background-color: rgb(34 , 39 , 46) ; font-family: &amp;#34;fira code&amp;#34; , &amp;#34;menlo&amp;#34; , &amp;#34;monaco&amp;#34; , &amp;#34;courier new&amp;#34; , monospace , &amp;#34;menlo&amp;#34; , &amp;#34;monaco&amp;#34; , &amp;#34;courier new&amp;#34; , monospace ; font-size: 14px ; line-height: 21px&quot;&gt;root&lt;span style=&quot;color: #f47067&quot;&gt;.&lt;/span&gt;&lt;span style=&quot;color: #dcbdfb&quot;&gt;legacy_renderSubtreeIntoContainer&lt;/span&gt;&lt;/div&gt;" style="whiteSpace=wrap;html=1;" vertex="1" parent="1">
          <mxGeometry x="360" y="710" width="380" height="60" as="geometry" />
        </mxCell>
        <mxCell id="ANqivhsRmzJsVqNhGhUm-11" value="" style="edgeStyle=orthogonalEdgeStyle;rounded=0;orthogonalLoop=1;jettySize=auto;html=1;" edge="1" parent="1" source="ANqivhsRmzJsVqNhGhUm-10" target="ANqivhsRmzJsVqNhGhUm-1">
          <mxGeometry relative="1" as="geometry" />
        </mxCell>
        <mxCell id="ANqivhsRmzJsVqNhGhUm-10" value="root.render" style="whiteSpace=wrap;html=1;" vertex="1" parent="1">
          <mxGeometry x="95" y="630" width="120" height="60" as="geometry" />
        </mxCell>
        <mxCell id="ANqivhsRmzJsVqNhGhUm-14" value="caller" style="whiteSpace=wrap;html=1;rounded=0;" vertex="1" parent="1">
          <mxGeometry x="100" y="900" width="120" height="60" as="geometry" />
        </mxCell>
      </root>
    </mxGraphModel>
  </diagram>
</mxfile>
